<?xml version="1.0" encoding="utf-8"?>
<!-- Generator: Adobe Illustrator 24.0.1, SVG Export Plug-In . SVG Version: 6.00 Build 0)  -->
<svg version="1.1" id="Layer_1" xmlns="http://www.w3.org/2000/svg" xmlns:xlink="http://www.w3.org/1999/xlink" x="0px" y="0px"
	 viewBox="0 0 512 512" style="enable-background:new 0 0 512 512;" xml:space="preserve">
<style type="text/css">
	.st0{fill:#FFFFFF;}
</style>
<g>
	<g>
		<g>
			<path class="st0" d="M434.3,115.2l-56.8-66.9c-4.6-5.4-11.3-5.4-15.8,0l-48.9,57.6l-48.9-57.6c-4.6-5.4-11.3-5.4-15.8,0
				l-48.9,57.6l-48.9-57.6c-4.6-5.4-11.3-5.4-15.8,0l-56.9,66.9c-5.1,6-5.7,16.6-1.3,23.6s12.1,7.8,17.2,1.8L142.4,83l48.9,57.6
				c0.1,0.1,0.1,0.1,0.2,0.1c1,1.1,2.1,2,3.3,2.6c0.2,0.1,0.4,0.2,0.6,0.3c1.2,0.5,2.3,0.8,3.5,0.9c0.1,0,0.2,0.1,0.3,0.1
				c0.2,0,0.4-0.1,0.6-0.1c0.5,0,0.9-0.1,1.4-0.2c0.4-0.1,0.7-0.2,1.1-0.3c0.4-0.2,0.9-0.4,1.3-0.6c0.3-0.2,0.7-0.4,1-0.6
				c0.4-0.3,0.8-0.6,1.2-1c0.3-0.3,0.6-0.6,0.9-0.9c0.1-0.1,0.3-0.2,0.4-0.4L256,82.9l48.9,57.6c0.1,0.1,0.1,0.1,0.2,0.1
				c1,1.1,2.1,2,3.3,2.6c0.2,0.1,0.4,0.2,0.6,0.3c1.2,0.5,2.3,0.8,3.6,0.9c0.1,0,0.2,0.1,0.3,0.1c0.2,0,0.4-0.1,0.6-0.1
				c0.5,0,0.9-0.1,1.4-0.2c0.4-0.1,0.7-0.2,1.1-0.3c0.4-0.2,0.9-0.4,1.3-0.6c0.4-0.2,0.7-0.4,1-0.6c0.4-0.3,0.8-0.6,1.2-1
				c0.3-0.3,0.6-0.6,1-0.9c0.1-0.1,0.3-0.2,0.4-0.4l48.9-57.6l48.9,57.6c2.3,2.7,5.1,4,7.9,4c3.4,0,6.8-2,9.2-5.8
				C440,131.8,439.4,121.2,434.3,115.2z"/>
			<path class="st0" d="M425,175.9l-52.7-62.2c-1.5-1.8-3.8-1.8-5.3,0l-52.7,62.2c-0.9,1.1-1.4,2.6-1.4,4.2c0-1.6-0.5-3.2-1.4-4.2
				l-52.7-62.2c-1.5-1.8-3.8-1.8-5.3,0l-52.7,62.2c-0.9,1.1-1.4,2.6-1.4,4.2c0-1.6-0.5-3.2-1.4-4.2l-52.7-62.2
				c-1.5-1.8-3.8-1.8-5.3,0l-52.7,62.2c-0.9,1.1-1.4,2.6-1.4,4.2V462c0,3.1,1.8,5.6,4.1,5.6h105.5c2.2,0,4.1-2.5,4.1-5.6
				c0,3.1,1.8,5.6,4.1,5.6h105.5c2.2,0,4.1-2.5,4.1-5.6c0,3.1,1.8,5.6,4.1,5.6h105.5c2.2,0,4.1-2.5,4.1-5.6V180.1
				C426.4,178.5,425.8,176.9,425,175.9z M101.8,224c0-3.1,1.8-5.6,4.1-5.6h24.3c2.2,0,4.1,2.5,4.1,5.6v18.6c0,3.1-1.8,5.6-4.1,5.6
				h-24.3c-2.2,0-4.1-2.5-4.1-5.6V224z M101.8,298.4v-18.6c0-3.1,1.8-5.6,4.1-5.6h24.3c2.2,0,4.1,2.5,4.1,5.6v18.6
				c0,3.1-1.8,5.6-4.1,5.6h-24.3C103.6,304,101.8,301.5,101.8,298.4z M158.6,439.7c0,3.1-1.8,5.6-4.1,5.6h-24.3
				c-2.2,0-4.1-2.5-4.1-5.6v-66.9c0-3.1,1.8-5.6,4.1-5.6h24.3c2.2,0,4.1,2.5,4.1,5.6V439.7z M182.9,298.4c0,3.1-1.8,5.6-4.1,5.6
				h-24.3c-2.2,0-4.1-2.5-4.1-5.6v-18.6c0-3.1,1.8-5.6,4.1-5.6h24.3c2.2,0,4.1,2.5,4.1,5.6V298.4z M182.9,242.6
				c0,3.1-1.8,5.6-4.1,5.6h-24.3c-2.2,0-4.1-2.5-4.1-5.6V224c0-3.1,1.8-5.6,4.1-5.6h24.3c2.2,0,4.1,2.5,4.1,5.6V242.6z M215.4,224
				c0-3.1,1.8-5.6,4.1-5.6h24.3c2.2,0,4.1,2.5,4.1,5.6v18.6c0,3.1-1.8,5.6-4.1,5.6h-24.3c-2.2,0-4.1-2.5-4.1-5.6V224z M215.4,298.4
				v-18.6c0-3.1,1.8-5.6,4.1-5.6h24.3c2.2,0,4.1,2.5,4.1,5.6v18.6c0,3.1-1.8,5.6-4.1,5.6h-24.3C217.2,304,215.4,301.5,215.4,298.4z
				 M272.2,439.7c0,3.1-1.8,5.6-4.1,5.6h-24.3c-2.2,0-4.1-2.5-4.1-5.6v-66.9c0-3.1,1.8-5.6,4.1-5.6h24.3c2.2,0,4.1,2.5,4.1,5.6
				V439.7z M296.5,298.4c0,3.1-1.8,5.6-4.1,5.6h-24.3c-2.2,0-4.1-2.5-4.1-5.6v-18.6c0-3.1,1.8-5.6,4.1-5.6h24.3
				c2.2,0,4.1,2.5,4.1,5.6V298.4z M296.5,242.6c0,3.1-1.8,5.6-4.1,5.6h-24.3c-2.2,0-4.1-2.5-4.1-5.6V224c0-3.1,1.8-5.6,4.1-5.6h24.3
				c2.2,0,4.1,2.5,4.1,5.6V242.6z M329,224c0-3.1,1.8-5.6,4.1-5.6h24.3c2.2,0,4.1,2.5,4.1,5.6v18.6c0,3.1-1.8,5.6-4.1,5.6h-24.3
				c-2.2,0-4.1-2.5-4.1-5.6V224z M329,298.4v-18.6c0-3.1,1.8-5.6,4.1-5.6h24.3c2.2,0,4.1,2.5,4.1,5.6v18.6c0,3.1-1.8,5.6-4.1,5.6
				h-24.3C330.8,304,329,301.5,329,298.4z M385.8,439.7c0,3.1-1.8,5.6-4.1,5.6h-24.3c-2.2,0-4.1-2.5-4.1-5.6v-66.9
				c0-3.1,1.8-5.6,4.1-5.6h24.3c2.2,0,4.1,2.5,4.1,5.6V439.7z M410.1,298.4c0,3.1-1.8,5.6-4.1,5.6h-24.3c-2.2,0-4.1-2.5-4.1-5.6
				v-18.6c0-3.1,1.8-5.6,4.1-5.6H406c2.2,0,4.1,2.5,4.1,5.6V298.4z M410.1,242.6c0,3.1-1.8,5.6-4.1,5.6h-24.3
				c-2.2,0-4.1-2.5-4.1-5.6V224c0-3.1,1.8-5.6,4.1-5.6H406c2.2,0,4.1,2.5,4.1,5.6V242.6z"/>
		</g>
	</g>
	<path class="st0" d="M69.3,244.5H20.6c-2.2,0-4.1,2.5-4.1,5.6v212c0,3.1,1.8,5.6,4.1,5.6h48.7c2.2,0,4.1-2.5,4.1-5.6v-39H41
		c-2.2,0-4.1-2.5-4.1-5.6V384c0-3.1,1.8-5.6,4.1-5.6h32.4v-44.6H41c-2.2,0-4.1-2.5-4.1-5.6v-33.5c0-3.1,1.8-5.6,4.1-5.6h32.4v-39
		C73.4,247,71.6,244.5,69.3,244.5z M8.5,199.9c0,9.2,5.4,16.7,12.2,16.7h52.7v-33.5H20.6C13.9,183.1,8.5,190.6,8.5,199.9z
		 M491.3,183.1h-52.7v33.5h52.7c6.7,0,12.2-7.5,12.2-16.7C503.5,190.6,498,183.1,491.3,183.1z M491.3,244.5h-48.7
		c-2.2,0-4.1,2.5-4.1,5.6v39h32.4c2.2,0,4.1,2.5,4.1,5.6v33.5c0,3.1-1.8,5.6-4.1,5.6h-32.4v44.6h32.4c2.2,0,4.1,2.5,4.1,5.6v33.5
		c0,3.1-1.8,5.6-4.1,5.6h-32.4v39c0,3.1,1.8,5.6,4.1,5.6h48.7c2.2,0,4.1-2.5,4.1-5.6v-212C495.3,247,493.5,244.5,491.3,244.5z"/>
</g>
</svg>
