<?xml version="1.0"?>
<svg xmlns="http://www.w3.org/2000/svg" xmlns:xlink="http://www.w3.org/1999/xlink" xmlns:svgjs="http://svgjs.com/svgjs" version="1.1" width="512" height="512" x="0" y="0" viewBox="0 0 512 512" style="enable-background:new 0 0 512 512" xml:space="preserve" class=""><g><g xmlns="http://www.w3.org/2000/svg"><g><g><g><g><path d="m232.846 205.036h-41.409c-5.523 0-10 4.477-10 10v51.597c0 5.523 4.477 10 10 10h41.409c5.523 0 10-4.477 10-10v-51.597c0-5.523-4.477-10-10-10zm-10 51.597h-21.409v-31.597h21.409z" fill="#ffffff" data-original="#000000" style="" class=""/><path d="m279.154 276.633h41.409c5.523 0 10-4.477 10-10v-51.597c0-5.523-4.477-10-10-10h-41.409c-5.523 0-10 4.477-10 10v51.597c0 5.523 4.477 10 10 10zm10-51.597h21.409v31.597h-21.409z" fill="#ffffff" data-original="#000000" style="" class=""/><path d="m232.846 301.399h-41.409c-5.523 0-10 4.477-10 10v51.597c0 5.523 4.477 10 10 10h41.409c5.523 0 10-4.477 10-10v-51.597c0-5.523-4.477-10-10-10zm-10 51.598h-21.409v-31.597h21.409z" fill="#ffffff" data-original="#000000" style="" class=""/><path d="m330.563 362.997v-51.597c0-5.523-4.477-10-10-10h-41.409c-5.523 0-10 4.477-10 10v51.597c0 5.523 4.477 10 10 10h41.409c5.523 0 10-4.477 10-10zm-20-10h-21.409v-31.597h21.409z" fill="#ffffff" data-original="#000000" style="" class=""/><path d="m504.462 356.656c0-19.586-7.562-37.441-19.922-50.803.001-.043.002-.086.002-.129v-125.225c0-5.523-4.477-10-10-10h-100.11v-10.456c0-5.523-4.477-10-10-10h-216.865c-5.523 0-10 4.477-10 10v10.456h-100.109c-5.523 0-10 4.477-10 10v125.356c-12.359 13.362-19.92 31.216-19.92 50.801s7.561 37.439 19.92 50.801v94.543c0 5.523 4.477 10 10 10h437.085c5.523 0 10-4.477 10-10v-94.543c12.358-13.362 19.919-31.216 19.919-50.801zm-431.948 135.344h-25.056v-69.135c7.664 4.067 16.113 6.845 25.057 8.042v61.093zm-44.976-135.344c0-30.28 24.663-54.915 54.977-54.915s54.977 24.635 54.977 54.915-24.663 54.915-54.977 54.915c-30.315-.001-54.977-24.636-54.977-54.915zm110.029 135.344h-45.053v-61.093c17.71-2.369 33.483-10.939 45.053-23.446zm0-186.15c-13.707-14.818-33.315-24.11-55.053-24.11-12.656 0-24.589 3.15-35.057 8.705v-99.947h90.11zm346.895 50.806c0 30.28-24.663 54.915-54.977 54.915s-54.977-24.635-54.977-54.915 24.663-54.915 54.977-54.915c30.315 0 54.977 24.634 54.977 54.915zm-64.977 135.344h-45.053v-84.539c11.57 12.507 27.342 21.077 45.053 23.445zm-129.18 0h-68.61v-64.018h68.61zm10-84.018h-88.61c-5.523 0-10 4.477-10 10v74.018h-44.127v-321.958h196.865v47.686c0 5.523 4.477 10 10 10s10-4.477 10-10v-27.229h90.11v99.948c-10.468-5.556-22.401-8.705-35.057-8.705-21.851 0-41.549 9.389-55.265 24.34-.949-4.535-4.97-7.941-9.787-7.941-5.523 0-10 4.477-10 10v183.859h-44.127v-74.018c-.002-5.523-4.479-10-10.002-10zm139.18 84.018v-61.093c8.944-1.196 17.393-3.974 25.057-8.042v69.135z" fill="#ffffff" data-original="#000000" style="" class=""/><path d="m355.2 266.94c1.602 3.845 5.529 6.368 9.703 6.167 4.063-.196 7.688-2.926 8.997-6.776 1.326-3.898.057-8.333-3.126-10.943-3.366-2.76-8.272-3.003-11.894-.588-3.915 2.61-5.489 7.797-3.68 12.14z" fill="#ffffff" data-original="#000000" style="" class=""/><path d="m216.085 78.186-2.507 30.893c-.282 3.477 1.268 6.849 4.089 8.899 2.823 2.05 6.508 2.482 9.727 1.139l28.606-11.932 28.605 11.932c1.239.517 2.547.771 3.849.771 2.08 0 4.143-.648 5.879-1.91 2.822-2.05 4.372-5.423 4.089-8.899l-2.507-30.893 20.187-23.519c2.271-2.647 3-6.286 1.922-9.604-1.078-3.317-3.807-5.833-7.2-6.639l-30.155-7.161-16.13-26.467c-1.815-2.979-5.051-4.796-8.539-4.796s-6.724 1.817-8.539 4.796l-16.13 26.467-30.155 7.161c-3.394.806-6.122 3.322-7.2 6.639s-.349 6.957 1.922 9.604zm23.925-28.428c2.597-.617 4.839-2.246 6.229-4.525l9.761-16.017 9.761 16.017c1.389 2.279 3.631 3.909 6.228 4.525l18.249 4.333-12.216 14.233c-1.738 2.025-2.595 4.662-2.379 7.322l1.518 18.695-17.311-7.221c-1.232-.514-2.54-.771-3.85-.771-1.309 0-2.618.257-3.85.771l-17.311 7.221 1.518-18.695c.216-2.661-.641-5.297-2.379-7.322l-12.216-14.233z" fill="#ffffff" data-original="#000000" style="" class=""/><path d="m343.244 100.777-1.874 23.078c-.282 3.476 1.268 6.849 4.089 8.899 2.822 2.05 6.509 2.481 9.727 1.139l21.37-8.914 21.37 8.914c1.239.517 2.547.77 3.849.77 2.08 0 4.143-.649 5.879-1.91 2.822-2.05 4.372-5.423 4.089-8.899l-1.873-23.078 15.081-17.57c2.271-2.647 3-6.286 1.922-9.604-1.078-3.317-3.807-5.833-7.2-6.639l-22.527-5.35-12.05-19.772c-1.815-2.979-5.051-4.796-8.539-4.796s-6.724 1.817-8.539 4.796l-12.05 19.772-22.527 5.35c-3.393.806-6.122 3.322-7.2 6.639s-.349 6.957 1.923 9.604zm21.403-20.667c2.597-.617 4.839-2.246 6.229-4.525l5.681-9.322 5.681 9.322c1.389 2.279 3.631 3.909 6.228 4.525l10.621 2.522-7.11 8.284c-1.738 2.025-2.595 4.662-2.379 7.322l.883 10.88-10.075-4.203c-1.232-.514-2.54-.771-3.85-.771-1.309 0-2.618.257-3.85.771l-10.075 4.202.883-10.88c.216-2.66-.641-5.297-2.379-7.322l-7.11-8.284z" fill="#ffffff" data-original="#000000" style="" class=""/><path d="m102.129 100.777-1.873 23.078c-.282 3.476 1.268 6.849 4.089 8.899 1.736 1.261 3.799 1.91 5.879 1.91 1.301 0 2.61-.254 3.849-.77l21.37-8.914 21.37 8.914c3.219 1.342 6.906.911 9.728-1.139s4.372-5.423 4.089-8.899l-1.873-23.078 15.08-17.57c2.272-2.647 3.001-6.286 1.923-9.604-1.078-3.317-3.807-5.833-7.2-6.639l-22.527-5.35-12.05-19.772c-1.815-2.979-5.051-4.796-8.539-4.796s-6.724 1.817-8.539 4.796l-12.05 19.772-22.527 5.35c-3.394.806-6.122 3.322-7.2 6.639s-.349 6.957 1.922 9.604zm21.404-20.667c2.597-.617 4.839-2.246 6.229-4.525l5.681-9.322 5.681 9.322c1.389 2.279 3.631 3.909 6.229 4.525l10.621 2.522-7.11 8.284c-1.739 2.025-2.595 4.662-2.379 7.322l.883 10.88-10.075-4.202c-2.464-1.027-5.235-1.027-7.699 0l-10.075 4.203.883-10.88c.216-2.661-.641-5.297-2.379-7.322l-7.11-8.284z" fill="#ffffff" data-original="#000000" style="" class=""/></g></g></g></g></g></g></svg>
