<?xml version="1.0" encoding="utf-8"?>
<!-- Generator: Adobe Illustrator 24.0.1, SVG Export Plug-In . SVG Version: 6.00 Build 0)  -->
<svg version="1.1" id="Layer_1" xmlns="http://www.w3.org/2000/svg" xmlns:xlink="http://www.w3.org/1999/xlink" x="0px" y="0px"
	 viewBox="0 0 512 512" style="enable-background:new 0 0 512 512;" xml:space="preserve">
<style type="text/css">
	.st0{fill:#FFFFFF;}
</style>
<g>
	<g>
		<g>
			<path class="st0" d="M252.9,104.2c-23.4,0-42.5-19.1-42.5-42.5s19.1-42.5,42.5-42.5s42.5,19.1,42.5,42.5S276.3,104.2,252.9,104.2
				z M252.9,34.1c-15.2,0-27.5,12.3-27.5,27.5s12.3,27.5,27.5,27.5c15.2,0,27.5-12.3,27.5-27.5S268,34.1,252.9,34.1z"/>
			<path class="st0" d="M237.5,233.6c-1.5,0-3-0.1-4.5-0.4c-0.1,0-0.2,0-0.3-0.1l-46-10.1c-15.8-3.3-26.4-19-23.4-35l11.2-63.3
				c2.4-12.6,10.1-23.3,21.3-29.3l24-13c3.6-2,8.2-0.6,10.2,3s0.6,8.2-3,10.2l-24,13c-7.2,3.9-12.2,10.8-13.7,18.8L178,190.8
				c-1.5,8.1,3.8,15.9,11.8,17.6l46,10c3,0.5,5.9-0.2,8-2c1-0.8,2.2-2.3,2.2-4.3c0-0.2,0-0.5,0-0.7c0.4-4.4-3-8.9-6.1-9.6
				c-0.1,0-0.2,0-0.2-0.1l-31.6-8.3c-3.9-1-6.3-5-5.4-8.9l8.3-36c0.9-4,5-6.6,9-5.6c4,0.9,6.6,5,5.6,9L219,181l24.4,6.4
				c10.7,2.5,18.5,13.8,17.6,25.2c-0.1,5.9-2.9,11.5-7.6,15.4C249.1,231.6,243.4,233.6,237.5,233.6z"/>
			<path class="st0" d="M271.8,233.6c-5.8,0-11.5-2-15.9-5.6c-4.8-4-7.6-9.8-7.6-15.8c0.1-13.3,6.5-22.3,17.7-24.9
				c0.1,0,0.1,0,0.2,0l26.2-5.4l-6.7-31.3c-0.9-4.1,1.7-8,5.8-8.9c4-0.9,8,1.7,8.9,5.8l8.3,38.7c0.4,2,0,4-1.1,5.7s-2.8,2.8-4.8,3.2
				l-33.5,6.9c-2,0.5-6,1.5-6,10.3c0,2,1.2,3.4,2.2,4.2c2.1,1.7,5.1,2.5,8,2l45.9-10c8.1-1.7,13.4-9.5,11.9-17.5l-11.2-63.4
				c-1.5-8-6.5-14.9-13.7-18.8l-24-13c-3.6-2-5-6.5-3-10.2c2-3.6,6.5-5,10.2-3l24,13c11.2,6.1,19,16.7,21.3,29.3l11.2,63.4
				c3,15.9-7.6,31.6-23.5,34.9l-46,10c-0.1,0-0.2,0-0.3,0.1C274.8,233.5,273.3,233.6,271.8,233.6z"/>
		</g>
	</g>
	<g>
		<path class="st0" d="M253.5,357c-23.4,0-42.5-19.1-42.5-42.5s19.1-42.5,42.5-42.5s42.5,19.1,42.5,42.5
			C296,338,276.9,357,253.5,357z M253.5,287c-15.2,0-27.5,12.3-27.5,27.5s12.3,27.5,27.5,27.5c15.2,0,27.5-12.3,27.5-27.5
			S268.7,287,253.5,287z"/>
		<path class="st0" d="M195.2,385.6c-1.1,0-2.3-0.3-3.3-0.8c-3.7-1.9-5.2-6.4-3.4-10.1l7.3-14.6c5.5-11.1,15.6-19.1,27.6-22.1l8.3-2
			c4-1,8.1,1.5,9.1,5.5s-1.5,8.1-5.5,9.1l-8.3,2c-7.7,1.9-14.2,7.1-17.8,14.2l-7.3,14.6C200.6,384.1,198,385.6,195.2,385.6z"/>
		<path class="st0" d="M314.1,385.6c-2.8,0-5.4-1.5-6.7-4.1l-7.3-14.6c-3.6-7.1-10-12.3-17.8-14.2l-8.3-2c-4-1-6.5-5.1-5.5-9.1
			s5.1-6.5,9.1-5.5l8.3,2c12,3,22.1,11,27.6,22.1l7.3,14.6c1.9,3.7,0.4,8.2-3.4,10.1C316.3,385.3,315.2,385.6,314.1,385.6z"/>
	</g>
	<path class="st0" d="M339.3,491.9c-4.1,0-7.5-3.4-7.5-7.5v-84c0-8.2-6.6-14.8-14.8-14.8H192.3c-8.2,0-14.8,6.6-14.8,14.8v84
		c0,4.1-3.4,7.5-7.5,7.5s-7.5-3.4-7.5-7.5v-84c0-16.4,13.4-29.8,29.8-29.8H317c16.4,0,29.8,13.4,29.8,29.8v84
		C346.8,488.5,343.4,491.9,339.3,491.9z"/>
	<path class="st0" d="M339.3,189.5c-4.1,0-7.5-3.4-7.5-7.5V75.2c0-8.2-6.6-14.8-14.8-14.8h-29.1c-4.1,0-7.5-3.4-7.5-7.5
		s3.4-7.5,7.5-7.5H317c16.4,0,29.8,13.4,29.8,29.8V182C346.8,186.1,343.4,189.5,339.3,189.5z"/>
	<path class="st0" d="M170,189.5c-4.1,0-7.5-3.4-7.5-7.5V75.2c0-16.4,13.4-29.8,29.8-29.8h23.9c4.1,0,7.5,3.4,7.5,7.5
		s-3.4,7.5-7.5,7.5h-23.9c-8.2,0-14.8,6.6-14.8,14.8V182C177.5,186.1,174.2,189.5,170,189.5z"/>
	<path class="st0" d="M488.3,357.2h-159c-4.1,0-7.5-3.4-7.5-7.5s3.4-7.5,7.5-7.5h146.1l-84.6-148.6h-51.5c-4.1,0-7.5-3.4-7.5-7.5
		s3.4-7.5,7.5-7.5h55.9c2.7,0,5.2,1.4,6.5,3.8L494.8,346c1.3,2.3,1.3,5.2,0,7.5C493.4,355.8,490.9,357.2,488.3,357.2z"/>
	<path class="st0" d="M180.7,357.2H22.8c-2.7,0-5.1-1.4-6.5-3.7c-1.3-2.3-1.4-5.2,0-7.5l93.1-163.6c1.3-2.3,3.8-3.8,6.5-3.8h52
		c4.1,0,7.5,3.4,7.5,7.5s-3.4,7.5-7.5,7.5h-47.6L35.6,342.2h145c4.1,0,7.5,3.4,7.5,7.5C188.2,353.8,184.8,357.2,180.7,357.2z"/>
	<path class="st0" d="M60.7,441.3c-4.1,0-7.5-3.4-7.5-7.5v-84.1c0-4.1,3.4-7.5,7.5-7.5s7.5,3.4,7.5,7.5v84.1
		C68.2,437.9,64.8,441.3,60.7,441.3z"/>
	<path class="st0" d="M448.8,441.3c-4.1,0-7.5-3.4-7.5-7.5v-84.1c0-4.1,3.4-7.5,7.5-7.5s7.5,3.4,7.5,7.5v84.1
		C456.3,437.9,452.9,441.3,448.8,441.3z"/>
</g>
</svg>
