<?xml version="1.0" encoding="utf-8"?>
<!-- Generator: Adobe Illustrator 24.0.1, SVG Export Plug-In . SVG Version: 6.00 Build 0)  -->
<svg version="1.1" id="Layer_1" xmlns="http://www.w3.org/2000/svg" xmlns:xlink="http://www.w3.org/1999/xlink" x="0px" y="0px"
	 viewBox="0 0 512 512" style="enable-background:new 0 0 512 512;" xml:space="preserve">
<style type="text/css">
	.st0{fill:#FFFFFF;}
</style>
<g>
	<g>
		<path class="st0" d="M445.2,304.4c-13.8-6.5-28.5-9.8-43.8-9.8c-17.5,0-34,4.4-48.4,12.1c-22.3-19.1-50.7-33.4-82.5-41.6
			c0.8-0.5,1.6-1,2.3-1.5c25.5-17,42.5-41.7,47.5-68.1c10.2-2.7,19-9.7,24.6-19.7c7.3-13.2,7.5-28.8,0.6-40.9c-1.7-3-5-4.9-8.5-4.9
			c0,0,0,0,0,0l-14.6,0c0.9-33.5-8.6-62-27.7-82.8c-20.3-22.2-51.3-34.9-85.1-34.9c-29.3,0-58.4,9.7-79.7,26.5
			c-24.1,19.1-37.4,46.4-37.4,77v14.2H78.6c-3.5,0-6.7,1.9-8.5,4.9c-7.1,12.4-7,28.3,0.4,41.5c5.3,9.6,13.9,16.4,23.7,19.1
			c4,21.5,15.9,41.6,34.5,57.9c4.9,4.3,10.2,8.2,15.7,11.7c-18.1,4.4-34.8,10.6-49.9,18.5c-4.8,2.5-6.6,8.4-4.1,13.2
			c1.7,3.3,5.1,5.2,8.7,5.2c1.5,0,3.1-0.4,4.5-1.1c19.2-10,41.4-17.1,66.1-20.9l12.3,33.6l-19.6,101.7c-0.3,1.7-0.2,3.5,0.4,5.1
			l7.1,19.8c-29.2-1.6-58-5.3-85.4-10.8V391c0-5.4-4.4-9.8-9.8-9.8c-5.4,0-9.8,4.4-9.8,9.8v34.1c-12.7-3.1-25.1-6.6-37-10.5
			c1.9-25,9.2-47.3,21.6-66.2c3-4.5,1.7-10.6-2.8-13.5c-4.5-2.9-10.6-1.7-13.5,2.8C17.6,361.5,9.2,389.6,8,421.2
			c-0.2,4.3,2.5,8.2,6.6,9.6c50.7,17.5,109.1,27.7,169.1,29.7c0,0,0,0,0,0c7.2,0.2,14.5,0.3,21.7,0.3l2.3,0l2.4,0
			c7.2,0,14.5-0.1,21.7-0.3c0,0,0,0,0,0c28.3-0.9,56.2-3.7,83.1-8.2c9.2,14.4,22.1,26.6,37.7,35.1c14.9,8.1,31.7,12.3,48.7,12.3
			c56.6,0,102.6-46,102.6-102.5C504,357.7,480.9,321.3,445.2,304.4z M216.7,303h-17.9l-7.4-20.2c5.3,0.8,10.6,1.2,15.9,1.3
			c0.2,0,0.4,0,0.7,0c5.4,0,10.8-0.4,16.2-1.3L216.7,303z M327.9,166.4c-0.9,1.7-2.9,4.6-6,7v-23.9l8.6,0
			C331.7,154.9,330.8,161.1,327.9,166.4z M112.2,115.9c0-54.6,50.3-84.1,97.6-84.1c28.3,0,54.1,10.4,70.7,28.6
			c15.7,17.1,23.4,41.1,22.6,69.7h-74c-34,0-60.7-10.1-81.4-31c-1.9-1.9-4.4-2.9-6.9-2.9c-1.3,0-2.5,0.2-3.8,0.8
			c-3.7,1.5-6,5.1-6,9.1c0.1,8-1.8,14-5.6,17.8c-3.7,3.7-8.9,5.3-13.1,5.9L112.2,115.9L112.2,115.9z M87.6,167.1
			c-3-5.5-3.9-11.9-2.5-17.5h7.6v23.7C90.1,171.1,88.4,168.6,87.6,167.1z M112.2,179.3v-29.7c8-0.8,18.7-3.5,27-11.8
			c3.6-3.6,6.4-8,8.2-12.9c22.2,16.7,49.1,24.8,81.6,24.8h73.4v29.6c0,2.4-0.1,4.7-0.4,7.1c0,0.1,0,0.1,0,0.2
			c-2.5,23.3-17.1,45.7-40,61c-16.5,11-35.7,17.1-54.2,17.1c-0.2,0-0.4,0-0.5,0c-9.4-0.1-18.7-1.6-27.5-4.2
			c-0.1-0.1-0.3-0.1-0.4-0.2c0,0,0,0,0,0c-0.3-0.1-0.5-0.2-0.8-0.3c0,0-0.1,0-0.1,0c-0.2-0.1-0.4-0.1-0.6-0.1
			C141,247.6,112.2,214.6,112.2,179.3z M207.7,441.3l-2.3,0c-4.8,0-9.6-0.1-14.5-0.2l-8.9-24.7l18-93.8h15.5l18,93.8l-8.9,24.7
			c-4.8,0.1-9.7,0.2-14.5,0.2L207.7,441.3z M245.6,440.3l7.1-19.8c0.6-1.6,0.7-3.4,0.4-5.1l-19.6-101.7l12.3-33.6
			c34.8,5.7,66.2,19,90.2,38.1c-22.8,18.8-37.3,47.2-37.3,79c0,12.8,2.4,25.3,6.8,36.9C286.1,437.1,266,439.2,245.6,440.3z
			 M401.4,480.1c-13.8,0-27.4-3.4-39.5-10c-14.3-7.7-25.8-19.3-33.3-33c0-0.1-0.1-0.1-0.1-0.2c-6.5-12-10.1-25.6-10.1-39.8
			c0-45.8,37.2-83,83-83c12.4,0,24.3,2.7,35.5,7.9c28.9,13.6,47.6,43.1,47.6,75C484.5,442.9,447.2,480.1,401.4,480.1z"/>
		<path class="st0" d="M65.9,324.6c1.9,0,3.7-0.5,5.4-1.6l0.2-0.1c4.5-3,5.7-9,2.7-13.5c-3-4.5-9-5.7-13.5-2.7l-0.2,0.1
			c-4.5,3-5.7,9-2.7,13.5C59.6,323.1,62.7,324.6,65.9,324.6z"/>
	</g>
	<g>
		<path class="st0" d="M434.3,412.9c0,8.1-2.3,14.6-7,19.5c-4.7,4.9-10.4,8.1-17,9.7v9.2v0.8c0,5.1-4.3,9.2-9.4,9.2
			c-5.1,0-9.2-4.1-9.2-9.2v-9.9c-4.1-1-7.9-2.5-11.3-4.6c-3.4-2.2-5.8-4.1-7.2-5.8l-2-2.6c-8.5-11.1,5.5-23,13.6-14.4
			c1,1,2,2.3,3.2,3.6c3.4,3.8,8.4,4.4,12.5,4.4c7.7,0,11.6-3.2,11.6-9.5c0-2.3-1.5-4-4.4-5.3c-2.9-1.2-6.5-2.4-10.6-3.3
			c-4.2-1-8.3-2.3-12.5-4c-4.2-1.7-7.7-4.5-10.6-8.6c-2.9-4.1-4.4-9.2-4.4-15.4c0-6.3,2-11.8,5.9-16.8c3.9-5,9.5-8.3,16.3-9.7v-2.1
			v-10.5c0-5,4.1-9.2,9.2-9.2c5.1,0,9.2,4.1,9.2,9.2v3.9v8.9c2.9,0.6,5.6,1.5,8,2.7c2.4,1.1,4.1,2.1,5,2.8l1.4,1.2
			c12.1,9.1,0.4,25.1-10,16.3c-7.1-5.9-23.1-7.2-23.1,3.6c0,2.3,1.1,4.1,3.2,5.5c2.1,1.4,4.8,2.4,7.9,2.8c3.1,0.5,6.5,1.2,10.3,2.3
			c3.7,1.1,7.2,2.4,10.3,3.8c3.1,1.5,5.8,4,7.9,7.7C433.2,402.8,434.3,407.4,434.3,412.9L434.3,412.9z"/>
	</g>
</g>
</svg>
