<?xml version="1.0" encoding="utf-8"?>
<!-- Generator: Adobe Illustrator 24.0.1, SVG Export Plug-In . SVG Version: 6.00 Build 0)  -->
<svg version="1.1" id="Layer_1" xmlns="http://www.w3.org/2000/svg" xmlns:xlink="http://www.w3.org/1999/xlink" x="0px" y="0px"
	 viewBox="0 0 512 512" style="enable-background:new 0 0 512 512;" xml:space="preserve">
<style type="text/css">
	.st0{fill:#FFFFFF;}
</style>
<g>
	<g>
		<g>
			<path class="st0" d="M256.9,198.6v-26.5l-20.5-4.1c-1.1-6.6-2.8-13.1-5.1-19.2L247,135l-13.3-23l-19.8,6.8
				c-4.2-5.1-8.9-9.8-14-14l6.8-19.8l-23-13.3l-13.8,15.7c-6.1-2.3-12.6-4-19.2-5.1l-4.1-20.5h-26.5L116,82.4
				c-6.6,1.1-13.1,2.8-19.2,5.1L83,71.8L60.1,85l6.8,19.8c-5.1,4.2-9.8,8.9-14,14L33,112.1l-13.3,23l15.7,13.8
				c-2.3,6.1-4,12.6-5.1,19.2l-20.5,4.1v26.5l20.5,4.1c1.1,6.6,2.8,13.1,5.1,19.2l-15.7,13.8l13.3,23l19.8-6.8
				c4.2,5.1,8.9,9.8,14,14L60,285.8L83,299l13.8-15.7c6.1,2.3,12.6,4,19.2,5.1l4.1,20.5h26.5l4.1-20.5c6.6-1.1,13.1-2.8,19.2-5.1
				l13.8,15.7l23-13.3l-6.8-19.8c5.1-4.2,9.8-8.9,14-14l19.8,6.8l13.3-23l-15.7-13.8c2.3-6.1,4-12.6,5.1-19.2L256.9,198.6z
				 M133.3,238.9c-29.6,0-53.6-24-53.6-53.6s24-53.6,53.6-53.6s53.6,24,53.6,53.6C186.9,215,162.9,238.9,133.3,238.9z"/>
			<path class="st0" d="M478.8,289.1v-26.5l-20.5-4.1c-1.1-6.6-2.8-13.1-5.1-19.2l15.7-13.8l-13.3-23l-19.8,6.8
				c-4.2-5.1-8.9-9.8-14-14l6.8-19.8l-23-13.3l-13.8,15.7c-6.1-2.3-12.6-4-19.2-5.1l-4.1-20.5H342l-4.1,20.5
				c-6.6,1.1-13.1,2.8-19.2,5.1L305,162.2l-23,13.3l6.8,19.8c-5.1,4.2-9.8,8.9-14,14l-19.8-6.8l-13.3,23l15.7,13.8
				c-2.3,6.1-4,12.6-5.1,19.2l-20.5,4.1v26.5l20.5,4.1c1.1,6.6,2.8,13.1,5.1,19.2l-15.7,13.8l13.3,23l19.8-6.8
				c4.2,5.1,8.9,9.8,14,14l-6.8,19.8l23,13.3l13.8-15.7c6.1,2.3,12.6,4,19.2,5.1l4.1,20.5h26.5l4.1-20.5c6.6-1.1,13.1-2.8,19.2-5.1
				l13.8,15.7l23-13.3l-6.8-19.8c5.1-4.2,9.8-8.9,14-14l19.8,6.8l13.3-23l-15.7-13.8c2.3-6.1,4-12.6,5.1-19.2L478.8,289.1z
				 M355.2,348c-39.9,0-72.2-32.3-72.2-72.2s32.3-72.2,72.2-72.2s72.2,32.3,72.2,72.2S395.1,348,355.2,348z"/>
			<path class="st0" d="M264.3,408.9v-19l-14.7-2.9c-0.8-4.8-2-9.4-3.7-13.8l11.3-9.9l-9.5-16.5l-14.2,4.8c-3-3.7-6.4-7-10.1-10.1
				l4.8-14.2l-16.5-9.5l-9.9,11.3c-4.4-1.6-9-2.9-13.8-3.7l-2.9-14.7h-19l-2.9,14.7c-4.8,0.8-9.4,2-13.8,3.7l-9.9-11.3l-16.5,9.5
				l4.8,14.2c-3.7,3-7,6.4-10.1,10.1l-14.2-4.8L94,363.3l11.3,9.9c-1.6,4.4-2.9,9-3.7,13.8l-14.7,2.9v19l14.7,2.9
				c0.8,4.8,2,9.4,3.7,13.8L94,435.5l9.5,16.5l14.2-4.8c3,3.7,6.4,7,10.1,10.1l-4.8,14.2l16.5,9.5l9.9-11.3c4.4,1.6,9,2.9,13.8,3.7
				l2.9,14.7h19l2.9-14.7c4.8-0.8,9.4-2,13.8-3.7l9.9,11.3l16.5-9.5l-4.8-14.2c3.7-3,7-6.4,10.1-10.1l14.2,4.8l9.5-16.5l-11.3-9.9
				c1.6-4.4,2.9-9,3.7-13.8L264.3,408.9z M175.7,451.2c-28.6,0-51.8-23.2-51.8-51.8c0-28.6,23.2-51.8,51.8-51.8s51.8,23.2,51.8,51.8
				S204.3,451.2,175.7,451.2z"/>
			<path class="st0" d="M501.2,103V87.5l-12-2.4c-0.6-3.9-1.7-7.6-3-11.2l9.2-8.1l-7.8-13.4L476,56.3c-2.5-3-5.2-5.7-8.2-8.2
				l3.9-11.6l-13.4-7.8l-8.1,9.2c-3.6-1.3-7.3-2.3-11.2-3l-2.4-12h-15.5l-2.4,12c-3.9,0.6-7.6,1.7-11.2,3l-8.1-9.2L386,36.5
				l3.9,11.6c-3,2.5-5.7,5.2-8.2,8.2l-11.6-3.9l-7.8,13.4l9.2,8.1c-1.3,3.6-2.3,7.3-3,11.2l-12,2.4V103l12,2.4
				c0.6,3.9,1.7,7.6,3,11.2l-9.2,8.1l7.8,13.4l11.6-3.9c2.5,3,5.2,5.7,8.2,8.2L386,154l13.4,7.8l8.1-9.2c3.6,1.3,7.3,2.3,11.2,3
				l2.4,12h15.5l2.4-12c3.9-0.6,7.6-1.7,11.2-3l8.1,9.2l13.4-7.8l-3.9-11.6c3-2.5,5.7-5.2,8.2-8.2l11.6,3.9l7.8-13.4l-9.2-8.1
				c1.3-3.6,2.3-7.3,3-11.2L501.2,103z M429,137.4c-23.3,0-42.2-18.9-42.2-42.2S405.7,53,429,53c23.3,0,42.2,18.9,42.2,42.2
				S452.3,137.4,429,137.4z"/>
		</g>
		<g>
			<path class="st0" d="M364.4,265.9c0,5-4.1,9.1-9.1,9.1s-9.1-4.1-9.1-9.1s4.1-9.1,9.1-9.1S364.4,260.9,364.4,265.9z M391.5,286.8
				c-0.8-3.9-3.2-7.4-6.8-9.5c-2.1-1.2-4.4-1.9-6.9-1.9s-4.9,0.7-6.9,1.9c-0.8,0.5-1.6,1.1-2.3,1.7c3.1,3,5.2,7.1,5.8,11.6h14
				C390.4,290.6,391.9,288.8,391.5,286.8z M322.1,290.6h14c0.6-4.5,2.7-8.6,5.8-11.6c-0.7-0.6-1.5-1.2-2.3-1.7
				c-2.1-1.2-4.4-1.9-6.9-1.9s-4.9,0.7-6.9,1.9c-3.6,2.1-6,5.7-6.8,9.5C318.6,288.8,320.1,290.6,322.1,290.6z"/>
			<path class="st0" d="M343.4,295.1c-2.3,0-4-2.1-3.5-4.3c0.9-4.3,3.5-8.3,7.6-10.7c2.3-1.4,5-2.2,7.8-2.2s5.5,0.8,7.8,2.2
				c4.1,2.4,6.7,6.3,7.6,10.7c0.5,2.2-1.3,4.3-3.5,4.3H343.4z M377.8,256.5c-4.5,0-8.1,3.6-8.1,8.1s3.6,8.1,8.1,8.1s8.1-3.6,8.1-8.1
				S382.2,256.5,377.8,256.5z M324.6,264.6c0,4.5,3.6,8.1,8.1,8.1s8.1-3.6,8.1-8.1s-3.6-8.1-8.1-8.1
				C328.3,256.5,324.6,260.1,324.6,264.6z"/>
		</g>
		<g>
			<g>
				<path class="st0" d="M154.8,162.8l0.3,0.6c0.4,0.9,0.1,1.9-0.8,2.4l-18.3,9.3c-0.6,0.3-1.4-0.1-1.4-0.8v-10.4
					c0-1.1-1.2-1.8-2.2-1.3L113.2,173c-0.6,0.3-0.9,0.9-0.9,1.6v3.6c0,1.3,1.4,2.2,2.6,1.6l11.7-6.3c0.6-0.3,1.4,0.1,1.4,0.8v9.7
					c0,1.3,1.4,2.2,2.6,1.6l26.8-13.7c0.9-0.4,1.9-0.1,2.4,0.8l0,0c0.6,1.2,2.3,1.3,3.1,0.2l5.9-9.1c0.7-1.1,0-2.7-1.4-2.7
					l-10.9-0.6C155.1,160.2,154.2,161.6,154.8,162.8z"/>
			</g>
			<path class="st0" d="M124.9,181v26.5c0,1-0.8,1.9-1.9,1.9h-8.9c-1,0-1.9-0.8-1.9-1.9v-21.8c0-0.7,0.4-1.3,1-1.6l8.9-4.7
				C123.4,178.7,124.9,179.6,124.9,181z M127.8,191.6v15.8c0,1,0.8,1.9,1.9,1.9h8.7c1,0,1.9-0.8,1.9-1.9v-20.2
				c0-1.4-1.5-2.3-2.7-1.7l-8.7,4.4C128.2,190.3,127.8,190.9,127.8,191.6z M143,183.9v23.6c0,1,0.8,1.9,1.9,1.9h8.7
				c1,0,1.9-0.8,1.9-1.9v-28c0-1.4-1.5-2.3-2.7-1.7l-8.7,4.4C143.4,182.5,143,183.2,143,183.9z"/>
		</g>
		<g>
			<g>
				<path class="st0" d="M184.7,390.9c-1.3,0-2.4-1.1-2.4-2.4v-10.1h-16.2c-1.3,0-2.3,1-2.3,2.3v13c1.2,0.2,2.1,1.2,2.1,2.4v1.5
					c0.4,0.1,0.8,0.3,1.2,0.5l1-1.1c0.5-0.5,1.1-0.7,1.7-0.7c0.6,0,1.2,0.2,1.7,0.7l1.6,1.6c0.2,0.2,0.4,0.5,0.5,0.8h16.6
					c0.4,0,0.7,0.3,0.7,0.7c0,0.4-0.3,0.7-0.7,0.7h-16.5c-0.1,0.4-0.3,0.8-0.6,1.2l-1.1,1.1c0.2,0.4,0.3,0.8,0.5,1.2h1.5
					c1.3,0,2.4,1,2.4,2.3h13.7c0.4,0,0.7,0.3,0.7,0.7c0,0.4-0.3,0.7-0.7,0.7h-13.7v0.9c0,1.3-1,2.4-2.4,2.4h-1.5
					c-0.1,0.4-0.3,0.8-0.5,1.2l1.1,1c0,0,0,0,0,0.1h17c0.4,0,0.7,0.3,0.7,0.7c0,0.4-0.3,0.7-0.7,0.7h-16.3c0.1,0.7-0.1,1.4-0.6,2
					l-1.5,1.6c-0.5,0.5-1.1,0.7-1.7,0.7c-0.6,0-1.2-0.2-1.7-0.7l-1.1-1c-0.4,0.2-0.8,0.3-1.2,0.5v1.5c0,0.3-0.1,0.7-0.2,1
					c0.1,0,0.1,0.1,0.2,0.1h26.5c1.3,0,2.3-1,2.3-2.3v-27.1h-10.1V390.9z M168.3,385h9.9c0.4,0,0.7,0.3,0.7,0.7
					c0,0.4-0.3,0.7-0.7,0.7h-9.9c-0.4,0-0.7-0.3-0.7-0.7S167.9,385,168.3,385z M190.2,393.6h-21.9c-0.4,0-0.7-0.3-0.7-0.7
					c0-0.4,0.3-0.7,0.7-0.7h21.9c0.4,0,0.7,0.3,0.7,0.7C190.9,393.2,190.6,393.6,190.2,393.6z"/>
			</g>
			<g>
				<path class="st0" d="M185.5,389.9h9.4l-11.4-11.6v9.5C183.5,389,184.4,389.9,185.5,389.9z"/>
			</g>
			<path class="st0" d="M175.3,406.4c0-0.6-0.5-1.2-1.2-1.2h-2.4c-0.2-0.9-0.6-1.8-1.1-2.6l1.7-1.7c0.5-0.5,0.4-1.2,0-1.7l-1.6-1.6
				c-0.5-0.5-1.2-0.4-1.7,0l-1.7,1.7c-0.8-0.5-1.7-0.8-2.6-1.1v-2.4c0-0.6-0.5-1.2-1.2-1.2h-2.2c-0.6,0-1.2,0.5-1.2,1.2v2.4
				c-0.9,0.2-1.8,0.6-2.6,1.1l-1.7-1.7c-0.5-0.5-1.2-0.4-1.7,0l-1.6,1.6c-0.5,0.5-0.4,1.2,0,1.7l1.7,1.7c-0.5,0.8-0.8,1.7-1.1,2.6
				h-2.4c-0.7,0-1.2,0.5-1.2,1.2v2.2c0,0.7,0.5,1.2,1.2,1.2h2.4c0.2,0.9,0.6,1.8,1.1,2.6l-1.7,1.7c-0.5,0.5-0.5,1.2,0,1.7l1.6,1.5
				c0.5,0.5,1.2,0.5,1.7,0l1.7-1.7c0.8,0.5,1.7,0.8,2.6,1.1v2.4c0,0.7,0.5,1.2,1.2,1.2h2.2c0.7,0,1.2-0.5,1.2-1.2v-2.4
				c0.9-0.2,1.8-0.6,2.6-1.1l1.7,1.7c0.5,0.5,1.2,0.5,1.7,0l1.5-1.6c0.5-0.5,0.5-1.2,0-1.7l-1.7-1.7c0.5-0.8,0.8-1.7,1.1-2.6h2.4
				c0.6,0,1.2-0.5,1.2-1.2L175.3,406.4z M162.5,413c-3,0-5.4-2.3-5.4-5.3s2.3-5.4,5.3-5.4s5.4,2.3,5.4,5.3
				C167.8,410.5,165.4,412.9,162.5,413z"/>
		</g>
		<g>
			<path class="st0" d="M443.6,78.9h-29.3c-1.8,0-3.2,1.4-3.2,3.2v17.1c0,1.8,1.4,3.2,3.2,3.2h5.5l-3.5,6c-0.8,1.4,0.2,3.2,1.8,3.2
				c0.8,0,1.5-0.4,1.8-1.1l4.7-8.2h8.6l4.7,8.2c0.4,0.7,1.1,1.1,1.8,1.1c1.6,0,2.7-1.8,1.8-3.2l-3.5-6h5.5c1.8,0,3.2-1.4,3.2-3.2
				V82.1C446.9,80.3,445.4,78.9,443.6,78.9z M430.8,85c0-0.7,0.5-1.2,1.1-1.2h9.8c0.6,0,1.1,0.5,1.1,1.2v7.1c0,0.7-0.5,1.2-1.1,1.2
				h-9.8c-0.6,0-1.1-0.5-1.1-1.2V85z M415.8,83.8h11.6c0.3,0,0.5,0.2,0.5,0.5s-0.2,0.5-0.5,0.5h-11.6c-0.3,0-0.5-0.2-0.5-0.5
				S415.5,83.8,415.8,83.8z M415.8,88h11.6c0.3,0,0.5,0.2,0.5,0.5s-0.2,0.5-0.5,0.5h-11.6c-0.3,0-0.5-0.2-0.5-0.5S415.5,88,415.8,88
				z M415.8,92.2h11.6c0.3,0,0.5,0.2,0.5,0.5s-0.2,0.5-0.5,0.5h-11.6c-0.3,0-0.5-0.2-0.5-0.5C415.3,92.4,415.5,92.2,415.8,92.2z
				 M442.7,97.5h-26.9c-0.3,0-0.5-0.2-0.5-0.5s0.2-0.5,0.5-0.5h26.9c0.3,0,0.5,0.2,0.5,0.5S443,97.5,442.7,97.5z"/>
		</g>
	</g>
</g>
</svg>
